<?xml version="1.0" encoding="UTF-8" standalone="no"?>
<!-- Created with Inkscape (http://www.inkscape.org/) -->

<svg
   width="128"
   height="128"
   viewBox="0 0 128 128"
   version="1.1"
   id="svg1"
   inkscape:version="1.4.2 (ebf0e940d0, 2025-05-08)"
   sodipodi:docname="io.gitlab.nekocwd.singneko-symbolic.svg"
   xmlns:inkscape="http://www.inkscape.org/namespaces/inkscape"
   xmlns:sodipodi="http://sodipodi.sourceforge.net/DTD/sodipodi-0.dtd"
   xmlns="http://www.w3.org/2000/svg"
   xmlns:svg="http://www.w3.org/2000/svg">
  <sodipodi:namedview
     id="namedview1"
     pagecolor="#ffffff"
     bordercolor="#000000"
     borderopacity="0.25"
     inkscape:showpageshadow="2"
     inkscape:pageopacity="0.0"
     inkscape:pagecheckerboard="0"
     inkscape:deskcolor="#d1d1d1"
     inkscape:document-units="px"
     inkscape:zoom="4.3369216"
     inkscape:cx="86.351573"
     inkscape:cy="52.80243"
     inkscape:window-width="1888"
     inkscape:window-height="1125"
     inkscape:window-x="0"
     inkscape:window-y="0"
     inkscape:window-maximized="1"
     inkscape:current-layer="layer1" />
  <defs
     id="defs1">
    <linearGradient
       id="swatch9">
      <stop
         style="stop-color:#000000;stop-opacity:1;"
         offset="0"
         id="stop9" />
    </linearGradient>
    <linearGradient
       inkscape:collect="always"
       id="linearGradient118859">
      <stop
   style="stop-color:#fc0000;stop-opacity:1;"
   offset="0"
   id="stop118855" />

      <stop
   style="stop-color:#000000;stop-opacity:1;"
   offset="1"
   id="stop118857" />

    </linearGradient>
    <linearGradient
       inkscape:collect="always"
       id="linearGradient119593">
      <stop
   style="stop-color:#000000;stop-opacity:1;"
   offset="0"
   id="stop119589" />

      <stop
   style="stop-color:#f70000;stop-opacity:1;"
   offset="1"
   id="stop119591" />

    </linearGradient>
  </defs>
  <g
     inkscape:label="Layer 1"
     inkscape:groupmode="layer"
     id="layer1">
    <path
       sodipodi:type="spiral"
       style="fill:none;fill-rule:evenodd;stroke:#000000;stroke-width:7;stroke-linecap:round;stroke-linejoin:miter;stroke-dasharray:none"
       id="path11"
       sodipodi:cx="64"
       sodipodi:cy="64"
       sodipodi:expansion="1"
       sodipodi:revolution="4.0999999"
       sodipodi:radius="53.414837"
       sodipodi:argument="-41.440689"
       sodipodi:t0="0"
       d="m 64,64 c -1.617354,1.106455 -2.289424,-1.634275 -1.839,-2.688148 1.22062,-2.855932 5.127534,-2.619035 7.215297,-0.989853 3.734518,2.914224 3.177395,8.558351 0.140704,11.742446 -4.456465,4.672788 -12.03921,3.761992 -16.269594,-0.708443 -5.638438,-5.958387 -4.358348,-15.538292 1.557591,-20.796744 7.444606,-6.617224 19.046171,-4.960905 25.323892,2.406739 7.603162,8.923205 5.567076,22.559028 -3.255887,29.851041 C 66.475447,91.410424 50.798012,88.992556 42.494813,78.712003 32.908441,66.842699 35.709339,49.118976 47.448996,39.806665 60.788341,29.225425 80.561516,32.410174 90.881484,45.609996 102.45893,60.4182 98.889758,82.243068 84.229005,93.569632 67.95279,106.14426 44.074581,102.19026 31.74222,86.068005 18.169655,68.324412 22.508789,42.391616 40.092994,29.054071 59.303484,14.482997 87.291833,19.207498 101.63408,38.253994 117.20412,58.931003 112.09407,88.97567 91.585006,104.32223 69.441777,120.8916 37.340176,115.39586 20.989626,93.424007 14.365853,84.522987 10.722654,73.575437 10.606602,62.486782" />
  </g>
</svg>
