<?xml version="1.0" encoding="UTF-8" standalone="no"?>
<!-- Created with Inkscape (http://www.inkscape.org/) -->

<svg
   width="128"
   height="128"
   viewBox="0 0 128 128"
   version="1.1"
   id="svg1"
   inkscape:version="1.4.2 (ebf0e940d0, 2025-05-08)"
   sodipodi:docname="io.gitlab.nekocwd.singularity.svg"
   xmlns:inkscape="http://www.inkscape.org/namespaces/inkscape"
   xmlns:sodipodi="http://sodipodi.sourceforge.net/DTD/sodipodi-0.dtd"
   xmlns:xlink="http://www.w3.org/1999/xlink"
   xmlns="http://www.w3.org/2000/svg"
   xmlns:svg="http://www.w3.org/2000/svg">
  <sodipodi:namedview
     id="namedview1"
     pagecolor="#ffffff"
     bordercolor="#000000"
     borderopacity="0.25"
     inkscape:showpageshadow="2"
     inkscape:pageopacity="0.0"
     inkscape:pagecheckerboard="0"
     inkscape:deskcolor="#d1d1d1"
     inkscape:document-units="px"
     inkscape:zoom="4.3369216"
     inkscape:cx="86.351573"
     inkscape:cy="52.80243"
     inkscape:window-width="1888"
     inkscape:window-height="1125"
     inkscape:window-x="0"
     inkscape:window-y="0"
     inkscape:window-maximized="1"
     inkscape:current-layer="layer1" />
  <defs
     id="defs1">
    <linearGradient
       id="linearGradient11"
       inkscape:collect="always">
      <stop
         style="stop-color:#dc8add;stop-opacity:1"
         offset="0"
         id="stop11" />
      <stop
         style="stop-color:#613583;stop-opacity:1"
         offset="1"
         id="stop12" />
    </linearGradient>
    <linearGradient
       id="swatch9">
      <stop
         style="stop-color:#000000;stop-opacity:1;"
         offset="0"
         id="stop9" />
    </linearGradient>
    <linearGradient
       inkscape:collect="always"
       id="linearGradient118859">
      <stop
   style="stop-color:#fc0000;stop-opacity:1;"
   offset="0"
   id="stop118855" />

      <stop
   style="stop-color:#000000;stop-opacity:1;"
   offset="1"
   id="stop118857" />

    </linearGradient>
    <linearGradient
       inkscape:collect="always"
       id="linearGradient119593">
      <stop
   style="stop-color:#000000;stop-opacity:1;"
   offset="0"
   id="stop119589" />

      <stop
   style="stop-color:#f70000;stop-opacity:1;"
   offset="1"
   id="stop119591" />

    </linearGradient>
    <radialGradient
       inkscape:collect="always"
       xlink:href="#linearGradient11"
       id="radialGradient12"
       cx="61.732062"
       cy="66.180716"
       fx="61.732062"
       fy="66.180716"
       r="53.625593"
       gradientTransform="matrix(1,0,0,0.95770866,0,2.7988711)"
       gradientUnits="userSpaceOnUse" />
  </defs>
  <g
     inkscape:label="Layer 1"
     inkscape:groupmode="layer"
     id="layer1">
    <circle
       style="fill:#241f31;fill-opacity:1;stroke-width:4;stroke-linecap:round;stroke-linejoin:round;stroke-dasharray:none"
       id="path10"
       cx="64"
       cy="64"
       r="64" />
    <path
       sodipodi:type="spiral"
       style="fill:none;fill-rule:evenodd;stroke:url(#radialGradient12);stroke-width:5;stroke-linecap:round;stroke-linejoin:miter;stroke-dasharray:none"
       id="path11"
       sodipodi:cx="64"
       sodipodi:cy="64"
       sodipodi:expansion="1"
       sodipodi:revolution="6.1999998"
       sodipodi:radius="53.414837"
       sodipodi:argument="-41.440689"
       sodipodi:t0="0"
       d="m 64,64 c -1.06954,0.731688 -1.513974,-1.08073 -1.216113,-1.777647 0.807184,-1.8886 3.390789,-1.731942 4.771406,-0.654579 2.469601,1.927148 2.101181,5.659554 0.09305,7.765166 -2.947018,3.090069 -7.961414,2.487768 -10.758926,-0.468487 -3.728644,-3.940224 -2.882133,-10.275322 1.03002,-13.752686 4.923046,-4.375906 12.595049,-3.280598 16.746445,1.591554 5.027897,5.900829 3.681453,14.918067 -2.153087,19.740205 -6.875803,5.682722 -17.243139,4.083809 -22.733964,-2.71462 -6.339375,-7.849057 -4.487169,-19.569583 3.276153,-25.727725 8.82118,-6.997271 21.896989,-4.891227 28.721484,3.837687 7.656052,9.792523 5.295794,24.225097 -4.39922,31.715244 -10.763303,8.315482 -26.553732,5.70074 -34.709003,-4.960754 -8.975406,-11.733666 -6.105978,-28.882773 5.522286,-37.702763 12.703711,-9.63571 31.212136,-6.511443 40.696523,6.08382 10.296317,13.673506 6.917091,33.541754 -6.645353,43.690283 C 67.598595,101.62186 46.370116,97.987584 35.557656,83.457811 23.939444,67.845271 27.828854,45.25623 43.326076,33.780009 59.907921,21.500588 83.857801,25.645191 95.997637,42.109963 108.9384,59.661004 104.53856,84.971952 87.106151,97.775284 68.586004,111.37751 41.913793,106.72238 28.44707,88.322264 14.183281,68.83309 19.093743,40.79945 38.461623,26.669423 58.919758,11.74399 88.31497,16.90981 103.10822,37.24551 118.69537,58.672548 113.27417,89.429456 91.970603,104.88587 69.574711,121.1348 37.455999,115.45819 21.336484,93.186717 8.1125209,74.915874 8.4273954,49.548775 21.693261,31.391954" />
  </g>
</svg>
